<?xml version="1.0" encoding="utf-8"?>
<!-- Generator: Adobe Illustrator 16.0.0, SVG Export Plug-In . SVG Version: 6.00 Build 0)  -->
<!DOCTYPE svg PUBLIC "-//W3C//DTD SVG 1.1//EN" "http://www.w3.org/Graphics/SVG/1.1/DTD/svg11.dtd">
<svg version="1.1" id="Ebene_1" xmlns="http://www.w3.org/2000/svg" xmlns:xlink="http://www.w3.org/1999/xlink" x="0px" y="0px"
	 width="152px" height="152px" viewBox="-344.5 373.5 152 152" enable-background="new -344.5 373.5 152 152" xml:space="preserve">
<g>
	<polygon fill="#C19A5B" points="-226.012,385.5 -228.523,385.5 -228.523,449.5 -228.523,513.5 -226.012,513.5 -223.5,513.5 
		-223.5,449.5 -223.5,385.5 	"/>
	<path fill="#C19A5B" d="M-248.98,421.786c-0.895,0-1.787,0-2.679,0c-0.895,0-1.756,0-2.586,0l-19.641,52.074l-20.467-52.36
		c-1.341,0.064-2.952,0.128-4.834,0.191c-1.883,0.063-3.75,0.095-5.6,0.095c-1.596,0-3.192-0.032-4.787-0.095
		c-1.596-0.063-2.905-0.127-3.925-0.191v1.906c2.106,0.063,3.701,0.302,4.786,0.715c1.085,0.413,1.819,1.176,2.202,2.286
		c0.383,1.112,0.575,2.844,0.575,5.192v45.165c0,2.541-0.192,4.543-0.575,6.004c-0.383,1.46-1.117,2.492-2.202,3.096
		c-1.085,0.604-2.68,1-4.786,1.191v1.904c1.02-0.125,2.329-0.204,3.925-0.237c1.595-0.031,3.191-0.048,4.787-0.048
		c1.658,0,3.429,0.017,5.313,0.048c1.881,0.033,3.43,0.112,4.643,0.237v-1.904c-2.617-0.191-4.563-0.604-5.839-1.238
		c-1.277-0.636-2.106-1.698-2.489-3.193c-0.383-1.491-0.574-3.573-0.574-6.24v-48.785l24.697,61.743h1.532l23.069-61.139v50.657
		c0,2.288-0.191,4.002-0.572,5.146c-0.384,1.142-1.136,1.904-2.25,2.286c-1.118,0.382-2.763,0.635-4.931,0.763v1.904
		c1.403-0.125,3.286-0.204,5.648-0.237c2.36-0.031,4.882-0.048,7.562-0.048c2.425,0,4.819,0.017,7.18,0.048
		c2.362,0.033,4.341,0.112,5.936,0.237v-1.904c-2.17-0.128-3.798-0.381-4.882-0.763c-1.086-0.382-1.805-1.145-2.154-2.286
		c-0.351-1.145-0.527-2.858-0.527-5.146V431.6c0-2.349,0.176-4.08,0.527-5.192c0.349-1.11,1.068-1.873,2.154-2.286
		c1.084-0.413,2.712-0.651,4.882-0.715V421.5c-1.595,0.064-3.574,0.128-5.936,0.191
		C-244.161,421.754-246.555,421.786-248.98,421.786z"/>
</g>
</svg>
