<?xml version="1.0" standalone="no"?>
<!DOCTYPE svg PUBLIC "-//W3C//DTD SVG 20010904//EN"
 "http://www.w3.org/TR/2001/REC-SVG-20010904/DTD/svg10.dtd">
<svg version="1.0" xmlns="http://www.w3.org/2000/svg"
 width="152.000000pt" height="152.000000pt" viewBox="0 0 152.000000 152.000000"
 preserveAspectRatio="xMidYMid meet">
<metadata>
Created by potrace 1.11, written by Peter Selinger 2001-2013
</metadata>
<g transform="translate(0.000000,152.000000) scale(0.100000,-0.100000)"
fill="#000000" stroke="none">
<path d="M1170 770 l0 -640 25 0 25 0 0 640 0 640 -25 0 -25 0 0 -640z"/>
<path d="M310 1042 c0 -4 15 -12 33 -17 l32 -10 3 -294 c2 -263 1 -296 -14
-313 -10 -10 -25 -18 -36 -18 -10 0 -18 -4 -18 -10 0 -6 38 -10 95 -10 57 0
95 4 95 10 0 6 -11 10 -25 10 -14 0 -34 9 -45 20 -19 19 -20 33 -19 288 0 147
3 263 5 257 2 -5 57 -138 122 -294 65 -157 123 -286 128 -288 6 -2 59 124 119
279 60 156 112 287 117 293 4 5 8 -106 8 -245 0 -279 -4 -303 -53 -308 -15 -2
-27 -8 -27 -13 0 -5 60 -9 140 -9 87 0 140 4 140 10 0 6 -9 10 -19 10 -11 0
-27 7 -35 16 -14 13 -16 55 -16 304 0 249 2 291 16 304 8 9 24 16 35 16 10 0
19 5 19 10 0 7 -36 10 -101 8 l-101 -3 -91 -243 c-50 -133 -94 -239 -98 -235
-3 5 -48 115 -99 246 l-93 237 -109 0 c-59 0 -108 -4 -108 -8z"/>
</g>
</svg>
